<?xml version="1.0" standalone="no"?>
<!DOCTYPE svg PUBLIC "-//W3C//DTD SVG 20010904//EN"
 "http://www.w3.org/TR/2001/REC-SVG-20010904/DTD/svg10.dtd">
<svg version="1.0" xmlns="http://www.w3.org/2000/svg"
 width="1024.000000pt" height="1024.000000pt" viewBox="0 0 1024.000000 1024.000000"
 preserveAspectRatio="xMidYMid meet">

<g transform="translate(0.000000,1024.000000) scale(0.100000,-0.100000)"
fill="#000000" stroke="none">
<path d="M4795 8564 c-279 -41 -484 -89 -680 -159 -606 -219 -1109 -637 -1439
-1199 -186 -314 -311 -702 -347 -1070 -14 -154 -7 -462 16 -616 33 -230 115
-513 205 -712 223 -493 537 -869 966 -1156 418 -280 890 -431 1404 -449 711
-24 1377 194 1881 616 109 92 320 305 402 407 156 195 326 496 412 728 128
347 196 808 167 1130 -40 440 -185 862 -421 1224 -441 675 -1115 1103 -1946
1237 -96 16 -548 29 -620 19z m558 -359 c53 -8 129 -22 167 -31 l70 -17 0
-111 c0 -127 14 -167 69 -200 40 -23 102 -24 136 -2 47 31 65 74 65 154 0 56
3 72 15 72 21 0 186 -74 295 -132 413 -222 769 -580 995 -1000 25 -46 45 -86
45 -90 0 -9 -46 -10 -75 -2 -11 3 -47 39 -80 81 -87 109 -252 263 -358 334
-411 275 -870 323 -1337 140 -58 -22 -141 -61 -184 -86 -44 -25 -81 -45 -83
-45 -2 0 -3 214 -3 475 l0 475 83 0 c45 0 126 -7 180 -15z m-543 -575 l0 -579
-59 -68 c-32 -38 -73 -81 -90 -97 l-31 -30 0 325 c0 288 -2 328 -18 359 -36
73 -123 100 -189 60 -63 -38 -61 -24 -66 -611 -4 -601 -4 -595 -85 -763 -76
-155 -71 -171 -72 272 0 422 0 421 -53 470 -52 49 -144 33 -191 -31 -20 -28
-21 -42 -26 -555 l-5 -527 -28 -81 c-17 -51 -46 -108 -79 -155 l-53 -74 -3
1150 -2 1149 27 23 c16 12 54 36 86 53 l57 31 0 -196 c0 -219 6 -247 64 -288
45 -32 115 -30 151 3 49 45 50 52 55 330 l5 265 74 28 c130 50 401 114 494
116 l37 1 0 -580z m-1329 -2098 c-26 -171 -143 -296 -335 -359 -66 -21 -101
-26 -191 -27 -126 -1 -145 6 -167 63 l-16 39 147 4 c186 5 237 23 327 112 100
101 99 92 99 603 l0 433 -32 31 c-26 26 -42 33 -85 37 -44 3 -58 0 -82 -19
-54 -43 -56 -56 -56 -453 0 -416 -2 -427 -82 -521 l-43 -49 -5 231 c-6 263 -9
275 -88 303 -37 13 -47 13 -84 0 -59 -21 -88 -66 -89 -139 0 -31 -4 -65 -9
-76 -11 -25 -11 491 0 560 4 28 8 42 9 31 2 -30 41 -85 71 -101 16 -8 47 -15
70 -15 32 0 48 7 78 34 l37 34 3 349 c2 396 -7 350 102 513 93 138 191 260
312 385 l113 118 3 -1029 c1 -621 -1 -1054 -7 -1092z m2449 1718 c12 -7 8 -10
-15 -10 -24 0 -31 -4 -31 -20 0 -13 7 -20 21 -21 17 -1 17 -2 3 -6 -10 -2 -18
-8 -18 -11 0 -4 -3 -17 -6 -29 -6 -22 -4 -23 57 -24 50 -2 41 -4 -46 -10 -210
-16 -373 -61 -554 -154 -265 -135 -439 -281 -789 -660 l-92 -100 33 75 c126
280 370 555 662 742 187 121 428 210 615 228 112 11 143 11 160 0z m1040 -425
c36 -9 116 -40 179 -71 98 -48 125 -67 196 -137 167 -166 245 -357 245 -600 0
-185 -44 -311 -179 -520 -148 -230 -180 -307 -201 -487 -15 -129 -35 -202 -78
-284 -101 -192 -295 -295 -504 -266 -136 19 -271 108 -326 217 -38 73 -47 151
-34 272 18 158 8 195 -81 311 -28 36 -64 94 -81 130 -27 58 -31 75 -31 155 0
84 3 95 36 163 43 83 41 85 -62 51 -170 -55 -349 -172 -539 -353 -303 -289
-496 -471 -558 -524 -442 -379 -1073 -672 -1449 -672 -87 0 -114 12 -168 72
l-39 43 113 12 c146 15 236 35 391 88 240 83 426 176 675 340 216 141 343 248
715 603 113 107 246 229 295 270 164 137 347 246 491 292 l72 23 5 141 c6 157
20 217 81 332 70 134 185 248 326 323 48 25 173 70 235 84 47 11 215 6 275 -8z
m-1151 -58 c-23 -17 -11 -93 14 -91 9 1 15 -3 14 -10 -1 -6 -39 -21 -85 -33
-106 -29 -218 -74 -308 -124 -170 -93 -239 -153 -619 -533 -204 -204 -433
-425 -510 -491 -402 -346 -735 -544 -1055 -626 -97 -25 -259 -36 -297 -20 -23
9 -68 70 -91 123 -2 5 32 8 75 8 323 0 712 183 1188 558 174 138 253 211 615
567 179 177 357 346 396 377 195 155 395 256 580 292 92 19 104 19 83 3z m74
-104 c-7 -2 -19 -2 -25 0 -7 3 -2 5 12 5 14 0 19 -2 13 -5z m-96 -439 c-3 -3
-12 -4 -19 -1 -8 3 -5 6 6 6 11 1 17 -2 13 -5z m-40 -19 c0 -8 -5 -15 -11 -15
-7 0 -7 -3 0 -8 7 -4 19 -24 27 -44 12 -29 20 -36 34 -32 10 3 -23 -17 -74
-44 -239 -130 -369 -230 -838 -647 -591 -524 -972 -760 -1400 -866 -69 -17
-164 -32 -223 -36 l-103 -6 -55 57 c-74 79 -72 86 25 86 151 0 404 67 621 165
343 154 683 393 1145 805 270 240 440 377 571 458 117 73 242 134 255 126 8
-4 9 -3 5 4 -4 7 -1 12 7 12 7 0 14 -7 14 -15z m46 -927 c-10 -17 -13 -38 -5
-38 4 0 13 -19 20 -42 l14 -43 -39 -30 c-44 -35 -269 -234 -428 -380 -106 -97
-242 -213 -335 -286 -42 -33 -67 -50 -199 -143 -283 -199 -616 -349 -869 -391
-147 -25 -187 -19 -275 41 l-71 49 64 8 c340 42 644 159 1005 386 132 83 367
257 486 360 42 36 139 120 215 186 166 145 278 236 358 293 63 45 72 49 59 30z
m361 -300 c-7 -104 5 -86 -130 -198 -43 -36 -189 -172 -324 -304 -369 -359
-538 -486 -855 -641 -200 -98 -304 -136 -452 -165 -91 -17 -115 -19 -162 -9
-61 13 -208 66 -216 79 -2 4 19 11 48 14 167 22 417 105 632 211 289 142 466
270 814 591 250 230 320 292 407 361 69 54 221 152 237 153 4 0 5 -42 1 -92z
m-195 -613 c-10 -10 -13 -28 -11 -51 3 -25 7 -32 13 -23 6 10 9 4 9 -18 0 -33
7 -40 26 -25 77 59 -217 -204 -366 -329 -205 -171 -317 -244 -495 -321 -93
-40 -120 -48 -173 -48 -76 0 -206 20 -195 30 4 4 33 15 63 25 138 44 376 173
550 299 126 90 378 295 554 448 33 29 50 38 25 13z m231 -387 c0 -10 6 -18 14
-18 7 0 19 -7 26 -15 11 -13 10 -14 -1 -10 -9 3 -27 -8 -44 -27 -28 -31 -28
-32 -3 -9 16 14 30 22 33 19 8 -8 -160 -121 -244 -162 -68 -35 -221 -98 -221
-91 0 3 128 112 288 246 73 62 110 86 127 85 17 -1 25 -7 25 -18z"/>
<path d="M6665 6611 c-168 -49 -305 -170 -371 -328 -26 -62 -28 -79 -29 -193
0 -116 2 -129 28 -185 15 -33 42 -77 58 -98 l31 -38 -37 -41 c-45 -49 -66 -98
-68 -152 -2 -77 12 -115 76 -199 35 -45 75 -102 91 -127 l28 -45 53 9 52 10
-39 49 c-51 66 -69 111 -69 175 0 81 24 118 116 180 120 79 148 104 178 161
69 127 10 305 -109 327 -118 22 -203 -45 -223 -175 l-7 -46 -19 35 c-13 24
-19 55 -19 100 -1 126 92 262 219 322 61 28 72 30 158 26 75 -3 101 -8 142
-29 28 -15 49 -31 48 -38 -2 -6 2 -10 9 -8 7 1 12 -5 13 -13 0 -8 8 -14 17
-12 17 3 42 -31 43 -58 0 -8 -6 -23 -14 -32 -12 -16 -12 -18 2 -18 8 0 17 5
19 12 3 7 7 6 11 -5 3 -9 2 -17 -3 -17 -6 0 -10 -7 -10 -16 0 -14 -3 -14 -17
-3 -17 12 -17 11 0 -6 10 -11 25 -20 35 -20 19 0 24 -35 7 -47 -7 -6 -6 -10 1
-15 12 -8 27 -104 26 -164 0 -86 -79 -200 -212 -308 -165 -133 -196 -214 -138
-351 53 -123 44 -196 -31 -271 -57 -58 -110 -75 -173 -58 -24 6 -48 15 -55 20
-8 7 -13 -4 -18 -39 -16 -119 87 -226 220 -226 131 -1 243 85 297 226 10 27
27 109 38 183 31 215 67 306 205 515 101 153 119 188 145 281 42 155 23 319
-57 472 -68 129 -237 256 -381 286 -77 16 -198 12 -267 -8z m403 -426 c-3 -3
-9 2 -12 12 -6 14 -5 15 5 6 7 -7 10 -15 7 -18z m39 -177 c-3 -7 -5 -2 -5 12
0 14 2 19 5 13 2 -7 2 -19 0 -25z m0 -40 c-3 -8 -6 -5 -6 6 -1 11 2 17 5 13 3
-3 4 -12 1 -19z"/>
<path d="M7000 6265 c0 -5 5 -17 10 -25 5 -8 10 -10 10 -5 0 6 -5 17 -10 25
-5 8 -10 11 -10 5z"/>
<path d="M7042 6090 c-12 -19 -11 -20 8 -8 20 13 27 28 12 28 -4 0 -13 -9 -20
-20z"/>
<path d="M7011 6034 c0 -11 3 -14 6 -6 3 7 2 16 -1 19 -3 4 -6 -2 -5 -13z"/>
<path d="M5800 5180 c6 -11 13 -20 16 -20 2 0 0 9 -6 20 -6 11 -13 20 -16 20
-2 0 0 -9 6 -20z"/>
<path d="M2073 2883 c-38 -7 -56 -43 -118 -236 -33 -103 -63 -187 -66 -187 -4
0 -37 90 -74 200 -45 135 -73 204 -85 210 -30 16 -162 12 -187 -5 -12 -8 -28
-36 -36 -63 -9 -26 -37 -113 -62 -194 -26 -82 -50 -148 -54 -148 -3 0 -33 86
-65 190 -39 126 -66 196 -81 210 -17 16 -35 20 -96 20 -87 0 -119 -16 -119
-58 0 -15 59 -200 130 -412 142 -421 146 -430 218 -430 59 0 97 30 117 92 38
116 138 393 144 401 4 4 24 -39 43 -95 143 -409 137 -398 209 -398 44 0 81 15
95 38 14 22 244 736 251 777 3 18 0 42 -6 53 -17 32 -90 48 -158 35z"/>
<path d="M3170 2877 c-63 -22 -62 -43 13 -244 202 -546 219 -588 248 -615 l29
-28 346 0 c288 0 350 2 374 15 38 20 50 43 50 100 0 37 -5 51 -26 70 l-27 25
-228 0 -228 0 22 63 22 62 157 5 c135 4 159 8 177 24 46 42 45 132 -3 159 -12
7 -76 14 -152 17 l-131 5 31 65 32 65 148 5 c147 5 148 5 172 33 36 42 34 109
-5 148 -34 33 -18 31 -261 30 l-185 -2 -25 -27 c-16 -17 -54 -108 -105 -249
-44 -123 -83 -223 -86 -223 -6 0 -73 171 -146 370 -19 52 -42 103 -51 112 -23
23 -116 32 -162 15z"/>
<path d="M5077 2880 c-44 -14 -54 -26 -83 -103 -15 -40 -63 -155 -107 -257
-141 -330 -187 -443 -187 -466 0 -40 32 -66 88 -72 82 -7 106 8 149 97 l38 76
156 3 156 2 28 -65 c15 -37 41 -77 58 -91 27 -23 38 -26 88 -22 71 5 109 28
109 67 0 16 -46 141 -103 277 -57 137 -128 311 -157 387 -34 88 -61 144 -75
153 -26 17 -122 26 -158 14z m104 -427 c22 -54 39 -101 39 -105 0 -5 -41 -8
-91 -8 -69 0 -90 3 -86 13 36 83 75 176 81 191 9 26 14 19 57 -91z"/>
<path d="M7049 2882 c-21 -2 -45 -12 -55 -24 -18 -19 -19 -43 -17 -421 l1
-401 27 -24 c27 -23 27 -23 287 -20 l260 3 24 28 c18 21 24 40 24 75 0 98 -39
115 -248 110 l-147 -3 -5 316 c-5 288 -7 319 -23 337 -19 21 -65 29 -128 24z"/>
<path d="M8330 2872 c-30 -15 -35 -23 -38 -57 -3 -36 5 -52 69 -145 40 -58
103 -154 141 -214 l68 -109 0 -157 c0 -151 1 -157 24 -179 13 -12 39 -24 57
-27 40 -7 114 11 126 29 4 6 10 87 13 178 l5 165 143 215 c156 235 167 262
115 296 -31 21 -144 24 -178 6 -11 -6 -58 -75 -105 -153 -77 -129 -85 -140
-98 -123 -7 10 -47 75 -88 145 -61 103 -81 128 -106 137 -46 16 -108 13 -148
-7z"/>
<path d="M2607 2857 c-13 -12 -53 -96 -89 -187 -36 -91 -105 -256 -152 -368
-106 -249 -107 -254 -70 -293 24 -25 35 -29 85 -29 73 0 102 23 141 107 l28
63 155 0 c85 0 158 1 163 1 4 1 18 -27 32 -61 34 -83 66 -110 131 -110 63 0
107 22 116 58 7 31 -2 58 -107 307 -39 94 -101 244 -137 333 -36 90 -75 172
-86 183 -17 16 -36 19 -104 19 -74 0 -87 -3 -106 -23z m152 -403 c22 -55 41
-103 41 -107 0 -4 -40 -7 -90 -7 -49 0 -90 2 -90 4 0 2 16 42 36 88 20 45 40
94 45 107 5 13 11 22 13 20 2 -2 22 -49 45 -105z"/>
<path d="M5750 2860 c-19 -19 -20 -33 -20 -424 l0 -405 26 -20 c25 -20 39 -21
234 -21 232 0 280 9 351 63 113 86 121 266 17 374 l-32 33 21 22 c81 89 66
253 -30 334 -70 59 -92 64 -329 64 -205 0 -219 -1 -238 -20z m394 -204 c37
-15 51 -44 42 -82 -11 -41 -47 -56 -143 -57 l-88 -2 -3 78 -3 77 81 0 c47 0
95 -6 114 -14z m47 -345 c35 -35 36 -57 7 -88 -20 -21 -29 -23 -135 -23 l-113
0 0 70 0 70 106 0 c103 0 106 -1 135 -29z"/>
<path d="M6601 2854 c-20 -26 -21 -37 -21 -420 l0 -393 24 -28 c22 -25 31 -28
85 -28 53 0 64 4 88 28 l28 27 0 401 0 401 -24 19 c-18 15 -39 19 -91 19 -62
0 -71 -2 -89 -26z"/>
<path d="M7519 2867 c-48 -37 -53 -121 -10 -169 28 -32 31 -32 130 -36 l101
-4 0 -294 c0 -336 3 -354 65 -374 54 -18 115 -7 142 25 23 26 23 29 23 341 l0
314 88 0 c115 1 142 22 142 115 0 35 -6 51 -25 70 l-24 25 -308 0 c-226 -1
-312 -4 -324 -13z"/>
</g>
</svg>
