<svg xmlns="http://www.w3.org/2000/svg" xml:space="preserve" xmlns:xlink="http://www.w3.org/1999/xlink"
    style="max-width: 100%;height: auto;" width="1023" height="1023" viewBox="0 0 1023 1023">
    <rect width="1023" height="1023" fill="#ffffff" x="0" y="0"></rect>
    <g fill="#000000">
        <g transform="translate(310,62) scale(5.3216666666667)">
            <rect width="6" height="6"></rect>
        </g>
        <g transform="translate(341,62) scale(5.3216666666667)">
            <rect width="6" height="6"></rect>
        </g>
        <g transform="translate(434,62) scale(5.3216666666667)">
            <rect width="6" height="6"></rect>
        </g>
        <g transform="translate(465,62) scale(5.3216666666667)">
            <rect width="6" height="6"></rect>
        </g>
        <g transform="translate(496,62) scale(5.3216666666667)">
            <rect width="6" height="6"></rect>
        </g>
        <g transform="translate(589,62) scale(5.3216666666667)">
            <rect width="6" height="6"></rect>
        </g>
        <g transform="translate(310,93) scale(5.3216666666667)">
            <rect width="6" height="6"></rect>
        </g>
        <g transform="translate(341,93) scale(5.3216666666667)">
            <rect width="6" height="6"></rect>
        </g>
        <g transform="translate(403,93) scale(5.3216666666667)">
            <rect width="6" height="6"></rect>
        </g>
        <g transform="translate(465,93) scale(5.3216666666667)">
            <rect width="6" height="6"></rect>
        </g>
        <g transform="translate(589,93) scale(5.3216666666667)">
            <rect width="6" height="6"></rect>
        </g>
        <g transform="translate(682,93) scale(5.3216666666667)">
            <rect width="6" height="6"></rect>
        </g>
        <g transform="translate(310,124) scale(5.3216666666667)">
            <rect width="6" height="6"></rect>
        </g>
        <g transform="translate(341,124) scale(5.3216666666667)">
            <rect width="6" height="6"></rect>
        </g>
        <g transform="translate(403,124) scale(5.3216666666667)">
            <rect width="6" height="6"></rect>
        </g>
        <g transform="translate(434,124) scale(5.3216666666667)">
            <rect width="6" height="6"></rect>
        </g>
        <g transform="translate(465,124) scale(5.3216666666667)">
            <rect width="6" height="6"></rect>
        </g>
        <g transform="translate(527,124) scale(5.3216666666667)">
            <rect width="6" height="6"></rect>
        </g>
        <g transform="translate(558,124) scale(5.3216666666667)">
            <rect width="6" height="6"></rect>
        </g>
        <g transform="translate(403,155) scale(5.3216666666667)">
            <rect width="6" height="6"></rect>
        </g>
        <g transform="translate(527,155) scale(5.3216666666667)">
            <rect width="6" height="6"></rect>
        </g>
        <g transform="translate(558,155) scale(5.3216666666667)">
            <rect width="6" height="6"></rect>
        </g>
        <g transform="translate(589,155) scale(5.3216666666667)">
            <rect width="6" height="6"></rect>
        </g>
        <g transform="translate(403,186) scale(5.3216666666667)">
            <rect width="6" height="6"></rect>
        </g>
        <g transform="translate(434,186) scale(5.3216666666667)">
            <rect width="6" height="6"></rect>
        </g>
        <g transform="translate(465,186) scale(5.3216666666667)">
            <rect width="6" height="6"></rect>
        </g>
        <g transform="translate(496,186) scale(5.3216666666667)">
            <rect width="6" height="6"></rect>
        </g>
        <g transform="translate(527,186) scale(5.3216666666667)">
            <rect width="6" height="6"></rect>
        </g>
        <g transform="translate(558,186) scale(5.3216666666667)">
            <rect width="6" height="6"></rect>
        </g>
        <g transform="translate(589,186) scale(5.3216666666667)">
            <rect width="6" height="6"></rect>
        </g>
        <g transform="translate(620,186) scale(5.3216666666667)">
            <rect width="6" height="6"></rect>
        </g>
        <g transform="translate(651,186) scale(5.3216666666667)">
            <rect width="6" height="6"></rect>
        </g>
        <g transform="translate(682,186) scale(5.3216666666667)">
            <rect width="6" height="6"></rect>
        </g>
        <g transform="translate(310,217) scale(5.3216666666667)">
            <rect width="6" height="6"></rect>
        </g>
        <g transform="translate(341,217) scale(5.3216666666667)">
            <rect width="6" height="6"></rect>
        </g>
        <g transform="translate(372,217) scale(5.3216666666667)">
            <rect width="6" height="6"></rect>
        </g>
        <g transform="translate(527,217) scale(5.3216666666667)">
            <rect width="6" height="6"></rect>
        </g>
        <g transform="translate(589,217) scale(5.3216666666667)">
            <rect width="6" height="6"></rect>
        </g>
        <g transform="translate(682,217) scale(5.3216666666667)">
            <rect width="6" height="6"></rect>
        </g>
        <g transform="translate(310,248) scale(5.3216666666667)">
            <rect width="6" height="6"></rect>
        </g>
        <g transform="translate(372,248) scale(5.3216666666667)">
            <rect width="6" height="6"></rect>
        </g>
        <g transform="translate(434,248) scale(5.3216666666667)">
            <rect width="6" height="6"></rect>
        </g>
        <g transform="translate(496,248) scale(5.3216666666667)">
            <rect width="6" height="6"></rect>
        </g>
        <g transform="translate(558,248) scale(5.3216666666667)">
            <rect width="6" height="6"></rect>
        </g>
        <g transform="translate(620,248) scale(5.3216666666667)">
            <rect width="6" height="6"></rect>
        </g>
        <g transform="translate(682,248) scale(5.3216666666667)">
            <rect width="6" height="6"></rect>
        </g>
        <g transform="translate(310,279) scale(5.3216666666667)">
            <rect width="6" height="6"></rect>
        </g>
        <g transform="translate(341,279) scale(5.3216666666667)">
            <rect width="6" height="6"></rect>
        </g>
        <g transform="translate(372,279) scale(5.3216666666667)">
            <rect width="6" height="6"></rect>
        </g>
        <g transform="translate(465,279) scale(5.3216666666667)">
            <rect width="6" height="6"></rect>
        </g>
        <g transform="translate(589,279) scale(5.3216666666667)">
            <rect width="6" height="6"></rect>
        </g>
        <g transform="translate(620,279) scale(5.3216666666667)">
            <rect width="6" height="6"></rect>
        </g>
        <g transform="translate(651,279) scale(5.3216666666667)">
            <rect width="6" height="6"></rect>
        </g>
        <g transform="translate(682,279) scale(5.3216666666667)">
            <rect width="6" height="6"></rect>
        </g>
        <g transform="translate(124,310) scale(5.3216666666667)">
            <rect width="6" height="6"></rect>
        </g>
        <g transform="translate(155,310) scale(5.3216666666667)">
            <rect width="6" height="6"></rect>
        </g>
        <g transform="translate(186,310) scale(5.3216666666667)">
            <rect width="6" height="6"></rect>
        </g>
        <g transform="translate(248,310) scale(5.3216666666667)">
            <rect width="6" height="6"></rect>
        </g>
        <g transform="translate(310,310) scale(5.3216666666667)">
            <rect width="6" height="6"></rect>
        </g>
        <g transform="translate(341,310) scale(5.3216666666667)">
            <rect width="6" height="6"></rect>
        </g>
        <g transform="translate(465,310) scale(5.3216666666667)">
            <rect width="6" height="6"></rect>
        </g>
        <g transform="translate(527,310) scale(5.3216666666667)">
            <rect width="6" height="6"></rect>
        </g>
        <g transform="translate(651,310) scale(5.3216666666667)">
            <rect width="6" height="6"></rect>
        </g>
        <g transform="translate(713,310) scale(5.3216666666667)">
            <rect width="6" height="6"></rect>
        </g>
        <g transform="translate(744,310) scale(5.3216666666667)">
            <rect width="6" height="6"></rect>
        </g>
        <g transform="translate(775,310) scale(5.3216666666667)">
            <rect width="6" height="6"></rect>
        </g>
        <g transform="translate(868,310) scale(5.3216666666667)">
            <rect width="6" height="6"></rect>
        </g>
        <g transform="translate(899,310) scale(5.3216666666667)">
            <rect width="6" height="6"></rect>
        </g>
        <g transform="translate(930,310) scale(5.3216666666667)">
            <rect width="6" height="6"></rect>
        </g>
        <g transform="translate(62,341) scale(5.3216666666667)">
            <rect width="6" height="6"></rect>
        </g>
        <g transform="translate(155,341) scale(5.3216666666667)">
            <rect width="6" height="6"></rect>
        </g>
        <g transform="translate(217,341) scale(5.3216666666667)">
            <rect width="6" height="6"></rect>
        </g>
        <g transform="translate(279,341) scale(5.3216666666667)">
            <rect width="6" height="6"></rect>
        </g>
        <g transform="translate(310,341) scale(5.3216666666667)">
            <rect width="6" height="6"></rect>
        </g>
        <g transform="translate(465,341) scale(5.3216666666667)">
            <rect width="6" height="6"></rect>
        </g>
        <g transform="translate(527,341) scale(5.3216666666667)">
            <rect width="6" height="6"></rect>
        </g>
        <g transform="translate(558,341) scale(5.3216666666667)">
            <rect width="6" height="6"></rect>
        </g>
        <g transform="translate(620,341) scale(5.3216666666667)">
            <rect width="6" height="6"></rect>
        </g>
        <g transform="translate(682,341) scale(5.3216666666667)">
            <rect width="6" height="6"></rect>
        </g>
        <g transform="translate(713,341) scale(5.3216666666667)">
            <rect width="6" height="6"></rect>
        </g>
        <g transform="translate(744,341) scale(5.3216666666667)">
            <rect width="6" height="6"></rect>
        </g>
        <g transform="translate(806,341) scale(5.3216666666667)">
            <rect width="6" height="6"></rect>
        </g>
        <g transform="translate(837,341) scale(5.3216666666667)">
            <rect width="6" height="6"></rect>
        </g>
        <g transform="translate(930,341) scale(5.3216666666667)">
            <rect width="6" height="6"></rect>
        </g>
        <g transform="translate(62,372) scale(5.3216666666667)">
            <rect width="6" height="6"></rect>
        </g>
        <g transform="translate(155,372) scale(5.3216666666667)">
            <rect width="6" height="6"></rect>
        </g>
        <g transform="translate(186,372) scale(5.3216666666667)">
            <rect width="6" height="6"></rect>
        </g>
        <g transform="translate(217,372) scale(5.3216666666667)">
            <rect width="6" height="6"></rect>
        </g>
        <g transform="translate(248,372) scale(5.3216666666667)">
            <rect width="6" height="6"></rect>
        </g>
        <g transform="translate(372,372) scale(5.3216666666667)">
            <rect width="6" height="6"></rect>
        </g>
        <g transform="translate(403,372) scale(5.3216666666667)">
            <rect width="6" height="6"></rect>
        </g>
        <g transform="translate(465,372) scale(5.3216666666667)">
            <rect width="6" height="6"></rect>
        </g>
        <g transform="translate(496,372) scale(5.3216666666667)">
            <rect width="6" height="6"></rect>
        </g>
        <g transform="translate(589,372) scale(5.3216666666667)">
            <rect width="6" height="6"></rect>
        </g>
        <g transform="translate(620,372) scale(5.3216666666667)">
            <rect width="6" height="6"></rect>
        </g>
        <g transform="translate(651,372) scale(5.3216666666667)">
            <rect width="6" height="6"></rect>
        </g>
        <g transform="translate(713,372) scale(5.3216666666667)">
            <rect width="6" height="6"></rect>
        </g>
        <g transform="translate(744,372) scale(5.3216666666667)">
            <rect width="6" height="6"></rect>
        </g>
        <g transform="translate(775,372) scale(5.3216666666667)">
            <rect width="6" height="6"></rect>
        </g>
        <g transform="translate(806,372) scale(5.3216666666667)">
            <rect width="6" height="6"></rect>
        </g>
        <g transform="translate(837,372) scale(5.3216666666667)">
            <rect width="6" height="6"></rect>
        </g>
        <g transform="translate(124,403) scale(5.3216666666667)">
            <rect width="6" height="6"></rect>
        </g>
        <g transform="translate(155,403) scale(5.3216666666667)">
            <rect width="6" height="6"></rect>
        </g>
        <g transform="translate(217,403) scale(5.3216666666667)">
            <rect width="6" height="6"></rect>
        </g>
        <g transform="translate(341,403) scale(5.3216666666667)">
            <rect width="6" height="6"></rect>
        </g>
        <g transform="translate(372,403) scale(5.3216666666667)">
            <rect width="6" height="6"></rect>
        </g>
        <g transform="translate(403,403) scale(5.3216666666667)">
            <rect width="6" height="6"></rect>
        </g>
        <g transform="translate(496,403) scale(5.3216666666667)">
            <rect width="6" height="6"></rect>
        </g>
        <g transform="translate(589,403) scale(5.3216666666667)">
            <rect width="6" height="6"></rect>
        </g>
        <g transform="translate(620,403) scale(5.3216666666667)">
            <rect width="6" height="6"></rect>
        </g>
        <g transform="translate(651,403) scale(5.3216666666667)">
            <rect width="6" height="6"></rect>
        </g>
        <g transform="translate(682,403) scale(5.3216666666667)">
            <rect width="6" height="6"></rect>
        </g>
        <g transform="translate(713,403) scale(5.3216666666667)">
            <rect width="6" height="6"></rect>
        </g>
        <g transform="translate(744,403) scale(5.3216666666667)">
            <rect width="6" height="6"></rect>
        </g>
        <g transform="translate(775,403) scale(5.3216666666667)">
            <rect width="6" height="6"></rect>
        </g>
        <g transform="translate(899,403) scale(5.3216666666667)">
            <rect width="6" height="6"></rect>
        </g>
        <g transform="translate(93,434) scale(5.3216666666667)">
            <rect width="6" height="6"></rect>
        </g>
        <g transform="translate(124,434) scale(5.3216666666667)">
            <rect width="6" height="6"></rect>
        </g>
        <g transform="translate(155,434) scale(5.3216666666667)">
            <rect width="6" height="6"></rect>
        </g>
        <g transform="translate(186,434) scale(5.3216666666667)">
            <rect width="6" height="6"></rect>
        </g>
        <g transform="translate(217,434) scale(5.3216666666667)">
            <rect width="6" height="6"></rect>
        </g>
        <g transform="translate(248,434) scale(5.3216666666667)">
            <rect width="6" height="6"></rect>
        </g>
        <g transform="translate(279,434) scale(5.3216666666667)">
            <rect width="6" height="6"></rect>
        </g>
        <g transform="translate(434,434) scale(5.3216666666667)">
            <rect width="6" height="6"></rect>
        </g>
        <g transform="translate(496,434) scale(5.3216666666667)">
            <rect width="6" height="6"></rect>
        </g>
        <g transform="translate(527,434) scale(5.3216666666667)">
            <rect width="6" height="6"></rect>
        </g>
        <g transform="translate(558,434) scale(5.3216666666667)">
            <rect width="6" height="6"></rect>
        </g>
        <g transform="translate(651,434) scale(5.3216666666667)">
            <rect width="6" height="6"></rect>
        </g>
        <g transform="translate(713,434) scale(5.3216666666667)">
            <rect width="6" height="6"></rect>
        </g>
        <g transform="translate(775,434) scale(5.3216666666667)">
            <rect width="6" height="6"></rect>
        </g>
        <g transform="translate(868,434) scale(5.3216666666667)">
            <rect width="6" height="6"></rect>
        </g>
        <g transform="translate(899,434) scale(5.3216666666667)">
            <rect width="6" height="6"></rect>
        </g>
        <g transform="translate(930,434) scale(5.3216666666667)">
            <rect width="6" height="6"></rect>
        </g>
        <g transform="translate(62,465) scale(5.3216666666667)">
            <rect width="6" height="6"></rect>
        </g>
        <g transform="translate(279,465) scale(5.3216666666667)">
            <rect width="6" height="6"></rect>
        </g>
        <g transform="translate(310,465) scale(5.3216666666667)">
            <rect width="6" height="6"></rect>
        </g>
        <g transform="translate(403,465) scale(5.3216666666667)">
            <rect width="6" height="6"></rect>
        </g>
        <g transform="translate(434,465) scale(5.3216666666667)">
            <rect width="6" height="6"></rect>
        </g>
        <g transform="translate(465,465) scale(5.3216666666667)">
            <rect width="6" height="6"></rect>
        </g>
        <g transform="translate(620,465) scale(5.3216666666667)">
            <rect width="6" height="6"></rect>
        </g>
        <g transform="translate(651,465) scale(5.3216666666667)">
            <rect width="6" height="6"></rect>
        </g>
        <g transform="translate(682,465) scale(5.3216666666667)">
            <rect width="6" height="6"></rect>
        </g>
        <g transform="translate(713,465) scale(5.3216666666667)">
            <rect width="6" height="6"></rect>
        </g>
        <g transform="translate(744,465) scale(5.3216666666667)">
            <rect width="6" height="6"></rect>
        </g>
        <g transform="translate(806,465) scale(5.3216666666667)">
            <rect width="6" height="6"></rect>
        </g>
        <g transform="translate(837,465) scale(5.3216666666667)">
            <rect width="6" height="6"></rect>
        </g>
        <g transform="translate(899,465) scale(5.3216666666667)">
            <rect width="6" height="6"></rect>
        </g>
        <g transform="translate(930,465) scale(5.3216666666667)">
            <rect width="6" height="6"></rect>
        </g>
        <g transform="translate(124,496) scale(5.3216666666667)">
            <rect width="6" height="6"></rect>
        </g>
        <g transform="translate(217,496) scale(5.3216666666667)">
            <rect width="6" height="6"></rect>
        </g>
        <g transform="translate(248,496) scale(5.3216666666667)">
            <rect width="6" height="6"></rect>
        </g>
        <g transform="translate(279,496) scale(5.3216666666667)">
            <rect width="6" height="6"></rect>
        </g>
        <g transform="translate(310,496) scale(5.3216666666667)">
            <rect width="6" height="6"></rect>
        </g>
        <g transform="translate(372,496) scale(5.3216666666667)">
            <rect width="6" height="6"></rect>
        </g>
        <g transform="translate(527,496) scale(5.3216666666667)">
            <rect width="6" height="6"></rect>
        </g>
        <g transform="translate(558,496) scale(5.3216666666667)">
            <rect width="6" height="6"></rect>
        </g>
        <g transform="translate(682,496) scale(5.3216666666667)">
            <rect width="6" height="6"></rect>
        </g>
        <g transform="translate(744,496) scale(5.3216666666667)">
            <rect width="6" height="6"></rect>
        </g>
        <g transform="translate(775,496) scale(5.3216666666667)">
            <rect width="6" height="6"></rect>
        </g>
        <g transform="translate(62,527) scale(5.3216666666667)">
            <rect width="6" height="6"></rect>
        </g>
        <g transform="translate(124,527) scale(5.3216666666667)">
            <rect width="6" height="6"></rect>
        </g>
        <g transform="translate(217,527) scale(5.3216666666667)">
            <rect width="6" height="6"></rect>
        </g>
        <g transform="translate(279,527) scale(5.3216666666667)">
            <rect width="6" height="6"></rect>
        </g>
        <g transform="translate(341,527) scale(5.3216666666667)">
            <rect width="6" height="6"></rect>
        </g>
        <g transform="translate(372,527) scale(5.3216666666667)">
            <rect width="6" height="6"></rect>
        </g>
        <g transform="translate(403,527) scale(5.3216666666667)">
            <rect width="6" height="6"></rect>
        </g>
        <g transform="translate(527,527) scale(5.3216666666667)">
            <rect width="6" height="6"></rect>
        </g>
        <g transform="translate(589,527) scale(5.3216666666667)">
            <rect width="6" height="6"></rect>
        </g>
        <g transform="translate(620,527) scale(5.3216666666667)">
            <rect width="6" height="6"></rect>
        </g>
        <g transform="translate(651,527) scale(5.3216666666667)">
            <rect width="6" height="6"></rect>
        </g>
        <g transform="translate(682,527) scale(5.3216666666667)">
            <rect width="6" height="6"></rect>
        </g>
        <g transform="translate(744,527) scale(5.3216666666667)">
            <rect width="6" height="6"></rect>
        </g>
        <g transform="translate(806,527) scale(5.3216666666667)">
            <rect width="6" height="6"></rect>
        </g>
        <g transform="translate(837,527) scale(5.3216666666667)">
            <rect width="6" height="6"></rect>
        </g>
        <g transform="translate(899,527) scale(5.3216666666667)">
            <rect width="6" height="6"></rect>
        </g>
        <g transform="translate(124,558) scale(5.3216666666667)">
            <rect width="6" height="6"></rect>
        </g>
        <g transform="translate(155,558) scale(5.3216666666667)">
            <rect width="6" height="6"></rect>
        </g>
        <g transform="translate(248,558) scale(5.3216666666667)">
            <rect width="6" height="6"></rect>
        </g>
        <g transform="translate(310,558) scale(5.3216666666667)">
            <rect width="6" height="6"></rect>
        </g>
        <g transform="translate(403,558) scale(5.3216666666667)">
            <rect width="6" height="6"></rect>
        </g>
        <g transform="translate(496,558) scale(5.3216666666667)">
            <rect width="6" height="6"></rect>
        </g>
        <g transform="translate(527,558) scale(5.3216666666667)">
            <rect width="6" height="6"></rect>
        </g>
        <g transform="translate(558,558) scale(5.3216666666667)">
            <rect width="6" height="6"></rect>
        </g>
        <g transform="translate(682,558) scale(5.3216666666667)">
            <rect width="6" height="6"></rect>
        </g>
        <g transform="translate(713,558) scale(5.3216666666667)">
            <rect width="6" height="6"></rect>
        </g>
        <g transform="translate(837,558) scale(5.3216666666667)">
            <rect width="6" height="6"></rect>
        </g>
        <g transform="translate(868,558) scale(5.3216666666667)">
            <rect width="6" height="6"></rect>
        </g>
        <g transform="translate(930,558) scale(5.3216666666667)">
            <rect width="6" height="6"></rect>
        </g>
        <g transform="translate(62,589) scale(5.3216666666667)">
            <rect width="6" height="6"></rect>
        </g>
        <g transform="translate(93,589) scale(5.3216666666667)">
            <rect width="6" height="6"></rect>
        </g>
        <g transform="translate(155,589) scale(5.3216666666667)">
            <rect width="6" height="6"></rect>
        </g>
        <g transform="translate(217,589) scale(5.3216666666667)">
            <rect width="6" height="6"></rect>
        </g>
        <g transform="translate(341,589) scale(5.3216666666667)">
            <rect width="6" height="6"></rect>
        </g>
        <g transform="translate(403,589) scale(5.3216666666667)">
            <rect width="6" height="6"></rect>
        </g>
        <g transform="translate(434,589) scale(5.3216666666667)">
            <rect width="6" height="6"></rect>
        </g>
        <g transform="translate(465,589) scale(5.3216666666667)">
            <rect width="6" height="6"></rect>
        </g>
        <g transform="translate(496,589) scale(5.3216666666667)">
            <rect width="6" height="6"></rect>
        </g>
        <g transform="translate(713,589) scale(5.3216666666667)">
            <rect width="6" height="6"></rect>
        </g>
        <g transform="translate(775,589) scale(5.3216666666667)">
            <rect width="6" height="6"></rect>
        </g>
        <g transform="translate(806,589) scale(5.3216666666667)">
            <rect width="6" height="6"></rect>
        </g>
        <g transform="translate(837,589) scale(5.3216666666667)">
            <rect width="6" height="6"></rect>
        </g>
        <g transform="translate(868,589) scale(5.3216666666667)">
            <rect width="6" height="6"></rect>
        </g>
        <g transform="translate(899,589) scale(5.3216666666667)">
            <rect width="6" height="6"></rect>
        </g>
        <g transform="translate(930,589) scale(5.3216666666667)">
            <rect width="6" height="6"></rect>
        </g>
        <g transform="translate(62,620) scale(5.3216666666667)">
            <rect width="6" height="6"></rect>
        </g>
        <g transform="translate(124,620) scale(5.3216666666667)">
            <rect width="6" height="6"></rect>
        </g>
        <g transform="translate(186,620) scale(5.3216666666667)">
            <rect width="6" height="6"></rect>
        </g>
        <g transform="translate(248,620) scale(5.3216666666667)">
            <rect width="6" height="6"></rect>
        </g>
        <g transform="translate(434,620) scale(5.3216666666667)">
            <rect width="6" height="6"></rect>
        </g>
        <g transform="translate(465,620) scale(5.3216666666667)">
            <rect width="6" height="6"></rect>
        </g>
        <g transform="translate(527,620) scale(5.3216666666667)">
            <rect width="6" height="6"></rect>
        </g>
        <g transform="translate(558,620) scale(5.3216666666667)">
            <rect width="6" height="6"></rect>
        </g>
        <g transform="translate(682,620) scale(5.3216666666667)">
            <rect width="6" height="6"></rect>
        </g>
        <g transform="translate(744,620) scale(5.3216666666667)">
            <rect width="6" height="6"></rect>
        </g>
        <g transform="translate(775,620) scale(5.3216666666667)">
            <rect width="6" height="6"></rect>
        </g>
        <g transform="translate(868,620) scale(5.3216666666667)">
            <rect width="6" height="6"></rect>
        </g>
        <g transform="translate(62,651) scale(5.3216666666667)">
            <rect width="6" height="6"></rect>
        </g>
        <g transform="translate(217,651) scale(5.3216666666667)">
            <rect width="6" height="6"></rect>
        </g>
        <g transform="translate(465,651) scale(5.3216666666667)">
            <rect width="6" height="6"></rect>
        </g>
        <g transform="translate(496,651) scale(5.3216666666667)">
            <rect width="6" height="6"></rect>
        </g>
        <g transform="translate(527,651) scale(5.3216666666667)">
            <rect width="6" height="6"></rect>
        </g>
        <g transform="translate(589,651) scale(5.3216666666667)">
            <rect width="6" height="6"></rect>
        </g>
        <g transform="translate(744,651) scale(5.3216666666667)">
            <rect width="6" height="6"></rect>
        </g>
        <g transform="translate(775,651) scale(5.3216666666667)">
            <rect width="6" height="6"></rect>
        </g>
        <g transform="translate(837,651) scale(5.3216666666667)">
            <rect width="6" height="6"></rect>
        </g>
        <g transform="translate(930,651) scale(5.3216666666667)">
            <rect width="6" height="6"></rect>
        </g>
        <g transform="translate(62,682) scale(5.3216666666667)">
            <rect width="6" height="6"></rect>
        </g>
        <g transform="translate(155,682) scale(5.3216666666667)">
            <rect width="6" height="6"></rect>
        </g>
        <g transform="translate(217,682) scale(5.3216666666667)">
            <rect width="6" height="6"></rect>
        </g>
        <g transform="translate(248,682) scale(5.3216666666667)">
            <rect width="6" height="6"></rect>
        </g>
        <g transform="translate(279,682) scale(5.3216666666667)">
            <rect width="6" height="6"></rect>
        </g>
        <g transform="translate(341,682) scale(5.3216666666667)">
            <rect width="6" height="6"></rect>
        </g>
        <g transform="translate(403,682) scale(5.3216666666667)">
            <rect width="6" height="6"></rect>
        </g>
        <g transform="translate(434,682) scale(5.3216666666667)">
            <rect width="6" height="6"></rect>
        </g>
        <g transform="translate(496,682) scale(5.3216666666667)">
            <rect width="6" height="6"></rect>
        </g>
        <g transform="translate(558,682) scale(5.3216666666667)">
            <rect width="6" height="6"></rect>
        </g>
        <g transform="translate(620,682) scale(5.3216666666667)">
            <rect width="6" height="6"></rect>
        </g>
        <g transform="translate(682,682) scale(5.3216666666667)">
            <rect width="6" height="6"></rect>
        </g>
        <g transform="translate(713,682) scale(5.3216666666667)">
            <rect width="6" height="6"></rect>
        </g>
        <g transform="translate(744,682) scale(5.3216666666667)">
            <rect width="6" height="6"></rect>
        </g>
        <g transform="translate(775,682) scale(5.3216666666667)">
            <rect width="6" height="6"></rect>
        </g>
        <g transform="translate(806,682) scale(5.3216666666667)">
            <rect width="6" height="6"></rect>
        </g>
        <g transform="translate(868,682) scale(5.3216666666667)">
            <rect width="6" height="6"></rect>
        </g>
        <g transform="translate(899,682) scale(5.3216666666667)">
            <rect width="6" height="6"></rect>
        </g>
        <g transform="translate(310,713) scale(5.3216666666667)">
            <rect width="6" height="6"></rect>
        </g>
        <g transform="translate(372,713) scale(5.3216666666667)">
            <rect width="6" height="6"></rect>
        </g>
        <g transform="translate(403,713) scale(5.3216666666667)">
            <rect width="6" height="6"></rect>
        </g>
        <g transform="translate(465,713) scale(5.3216666666667)">
            <rect width="6" height="6"></rect>
        </g>
        <g transform="translate(496,713) scale(5.3216666666667)">
            <rect width="6" height="6"></rect>
        </g>
        <g transform="translate(527,713) scale(5.3216666666667)">
            <rect width="6" height="6"></rect>
        </g>
        <g transform="translate(589,713) scale(5.3216666666667)">
            <rect width="6" height="6"></rect>
        </g>
        <g transform="translate(620,713) scale(5.3216666666667)">
            <rect width="6" height="6"></rect>
        </g>
        <g transform="translate(682,713) scale(5.3216666666667)">
            <rect width="6" height="6"></rect>
        </g>
        <g transform="translate(806,713) scale(5.3216666666667)">
            <rect width="6" height="6"></rect>
        </g>
        <g transform="translate(837,713) scale(5.3216666666667)">
            <rect width="6" height="6"></rect>
        </g>
        <g transform="translate(899,713) scale(5.3216666666667)">
            <rect width="6" height="6"></rect>
        </g>
        <g transform="translate(930,713) scale(5.3216666666667)">
            <rect width="6" height="6"></rect>
        </g>
        <g transform="translate(434,744) scale(5.3216666666667)">
            <rect width="6" height="6"></rect>
        </g>
        <g transform="translate(496,744) scale(5.3216666666667)">
            <rect width="6" height="6"></rect>
        </g>
        <g transform="translate(527,744) scale(5.3216666666667)">
            <rect width="6" height="6"></rect>
        </g>
        <g transform="translate(589,744) scale(5.3216666666667)">
            <rect width="6" height="6"></rect>
        </g>
        <g transform="translate(620,744) scale(5.3216666666667)">
            <rect width="6" height="6"></rect>
        </g>
        <g transform="translate(651,744) scale(5.3216666666667)">
            <rect width="6" height="6"></rect>
        </g>
        <g transform="translate(682,744) scale(5.3216666666667)">
            <rect width="6" height="6"></rect>
        </g>
        <g transform="translate(744,744) scale(5.3216666666667)">
            <rect width="6" height="6"></rect>
        </g>
        <g transform="translate(806,744) scale(5.3216666666667)">
            <rect width="6" height="6"></rect>
        </g>
        <g transform="translate(434,775) scale(5.3216666666667)">
            <rect width="6" height="6"></rect>
        </g>
        <g transform="translate(496,775) scale(5.3216666666667)">
            <rect width="6" height="6"></rect>
        </g>
        <g transform="translate(527,775) scale(5.3216666666667)">
            <rect width="6" height="6"></rect>
        </g>
        <g transform="translate(620,775) scale(5.3216666666667)">
            <rect width="6" height="6"></rect>
        </g>
        <g transform="translate(651,775) scale(5.3216666666667)">
            <rect width="6" height="6"></rect>
        </g>
        <g transform="translate(682,775) scale(5.3216666666667)">
            <rect width="6" height="6"></rect>
        </g>
        <g transform="translate(806,775) scale(5.3216666666667)">
            <rect width="6" height="6"></rect>
        </g>
        <g transform="translate(837,775) scale(5.3216666666667)">
            <rect width="6" height="6"></rect>
        </g>
        <g transform="translate(930,775) scale(5.3216666666667)">
            <rect width="6" height="6"></rect>
        </g>
        <g transform="translate(310,806) scale(5.3216666666667)">
            <rect width="6" height="6"></rect>
        </g>
        <g transform="translate(372,806) scale(5.3216666666667)">
            <rect width="6" height="6"></rect>
        </g>
        <g transform="translate(403,806) scale(5.3216666666667)">
            <rect width="6" height="6"></rect>
        </g>
        <g transform="translate(434,806) scale(5.3216666666667)">
            <rect width="6" height="6"></rect>
        </g>
        <g transform="translate(527,806) scale(5.3216666666667)">
            <rect width="6" height="6"></rect>
        </g>
        <g transform="translate(558,806) scale(5.3216666666667)">
            <rect width="6" height="6"></rect>
        </g>
        <g transform="translate(682,806) scale(5.3216666666667)">
            <rect width="6" height="6"></rect>
        </g>
        <g transform="translate(713,806) scale(5.3216666666667)">
            <rect width="6" height="6"></rect>
        </g>
        <g transform="translate(744,806) scale(5.3216666666667)">
            <rect width="6" height="6"></rect>
        </g>
        <g transform="translate(775,806) scale(5.3216666666667)">
            <rect width="6" height="6"></rect>
        </g>
        <g transform="translate(806,806) scale(5.3216666666667)">
            <rect width="6" height="6"></rect>
        </g>
        <g transform="translate(837,806) scale(5.3216666666667)">
            <rect width="6" height="6"></rect>
        </g>
        <g transform="translate(868,806) scale(5.3216666666667)">
            <rect width="6" height="6"></rect>
        </g>
        <g transform="translate(310,837) scale(5.3216666666667)">
            <rect width="6" height="6"></rect>
        </g>
        <g transform="translate(372,837) scale(5.3216666666667)">
            <rect width="6" height="6"></rect>
        </g>
        <g transform="translate(403,837) scale(5.3216666666667)">
            <rect width="6" height="6"></rect>
        </g>
        <g transform="translate(527,837) scale(5.3216666666667)">
            <rect width="6" height="6"></rect>
        </g>
        <g transform="translate(620,837) scale(5.3216666666667)">
            <rect width="6" height="6"></rect>
        </g>
        <g transform="translate(651,837) scale(5.3216666666667)">
            <rect width="6" height="6"></rect>
        </g>
        <g transform="translate(682,837) scale(5.3216666666667)">
            <rect width="6" height="6"></rect>
        </g>
        <g transform="translate(713,837) scale(5.3216666666667)">
            <rect width="6" height="6"></rect>
        </g>
        <g transform="translate(775,837) scale(5.3216666666667)">
            <rect width="6" height="6"></rect>
        </g>
        <g transform="translate(310,868) scale(5.3216666666667)">
            <rect width="6" height="6"></rect>
        </g>
        <g transform="translate(341,868) scale(5.3216666666667)">
            <rect width="6" height="6"></rect>
        </g>
        <g transform="translate(372,868) scale(5.3216666666667)">
            <rect width="6" height="6"></rect>
        </g>
        <g transform="translate(403,868) scale(5.3216666666667)">
            <rect width="6" height="6"></rect>
        </g>
        <g transform="translate(527,868) scale(5.3216666666667)">
            <rect width="6" height="6"></rect>
        </g>
        <g transform="translate(558,868) scale(5.3216666666667)">
            <rect width="6" height="6"></rect>
        </g>
        <g transform="translate(620,868) scale(5.3216666666667)">
            <rect width="6" height="6"></rect>
        </g>
        <g transform="translate(651,868) scale(5.3216666666667)">
            <rect width="6" height="6"></rect>
        </g>
        <g transform="translate(682,868) scale(5.3216666666667)">
            <rect width="6" height="6"></rect>
        </g>
        <g transform="translate(713,868) scale(5.3216666666667)">
            <rect width="6" height="6"></rect>
        </g>
        <g transform="translate(744,868) scale(5.3216666666667)">
            <rect width="6" height="6"></rect>
        </g>
        <g transform="translate(775,868) scale(5.3216666666667)">
            <rect width="6" height="6"></rect>
        </g>
        <g transform="translate(806,868) scale(5.3216666666667)">
            <rect width="6" height="6"></rect>
        </g>
        <g transform="translate(837,868) scale(5.3216666666667)">
            <rect width="6" height="6"></rect>
        </g>
        <g transform="translate(868,868) scale(5.3216666666667)">
            <rect width="6" height="6"></rect>
        </g>
        <g transform="translate(899,868) scale(5.3216666666667)">
            <rect width="6" height="6"></rect>
        </g>
        <g transform="translate(372,899) scale(5.3216666666667)">
            <rect width="6" height="6"></rect>
        </g>
        <g transform="translate(403,899) scale(5.3216666666667)">
            <rect width="6" height="6"></rect>
        </g>
        <g transform="translate(434,899) scale(5.3216666666667)">
            <rect width="6" height="6"></rect>
        </g>
        <g transform="translate(496,899) scale(5.3216666666667)">
            <rect width="6" height="6"></rect>
        </g>
        <g transform="translate(558,899) scale(5.3216666666667)">
            <rect width="6" height="6"></rect>
        </g>
        <g transform="translate(589,899) scale(5.3216666666667)">
            <rect width="6" height="6"></rect>
        </g>
        <g transform="translate(620,899) scale(5.3216666666667)">
            <rect width="6" height="6"></rect>
        </g>
        <g transform="translate(744,899) scale(5.3216666666667)">
            <rect width="6" height="6"></rect>
        </g>
        <g transform="translate(806,899) scale(5.3216666666667)">
            <rect width="6" height="6"></rect>
        </g>
        <g transform="translate(837,899) scale(5.3216666666667)">
            <rect width="6" height="6"></rect>
        </g>
        <g transform="translate(899,899) scale(5.3216666666667)">
            <rect width="6" height="6"></rect>
        </g>
        <g transform="translate(341,930) scale(5.3216666666667)">
            <rect width="6" height="6"></rect>
        </g>
        <g transform="translate(372,930) scale(5.3216666666667)">
            <rect width="6" height="6"></rect>
        </g>
        <g transform="translate(403,930) scale(5.3216666666667)">
            <rect width="6" height="6"></rect>
        </g>
        <g transform="translate(434,930) scale(5.3216666666667)">
            <rect width="6" height="6"></rect>
        </g>
        <g transform="translate(496,930) scale(5.3216666666667)">
            <rect width="6" height="6"></rect>
        </g>
        <g transform="translate(527,930) scale(5.3216666666667)">
            <rect width="6" height="6"></rect>
        </g>
        <g transform="translate(558,930) scale(5.3216666666667)">
            <rect width="6" height="6"></rect>
        </g>
        <g transform="translate(589,930) scale(5.3216666666667)">
            <rect width="6" height="6"></rect>
        </g>
        <g transform="translate(651,930) scale(5.3216666666667)">
            <rect width="6" height="6"></rect>
        </g>
        <g transform="translate(682,930) scale(5.3216666666667)">
            <rect width="6" height="6"></rect>
        </g>
        <g transform="translate(713,930) scale(5.3216666666667)">
            <rect width="6" height="6"></rect>
        </g>
        <g transform="translate(744,930) scale(5.3216666666667)">
            <rect width="6" height="6"></rect>
        </g>
        <g transform="translate(806,930) scale(5.3216666666667)">
            <rect width="6" height="6"></rect>
        </g>
        <g transform="translate(868,930) scale(5.3216666666667)">
            <rect width="6" height="6"></rect>
        </g>
    </g>
    <g>
        <g transform="translate(62,62)" fill="#000000">
            <g transform="scale(15.5)">
                <path d="M0,0v14h14V0H0z M12,12H2V2h10V12z"></path>
            </g>
        </g>
        <g transform="translate(744,62)" fill="#000000">
            <g transform="scale(15.5)">
                <path d="M0,0v14h14V0H0z M12,12H2V2h10V12z"></path>
            </g>
        </g>
        <g transform="translate(62,744)" fill="#000000">
            <g transform="scale(15.5)">
                <path d="M0,0v14h14V0H0z M12,12H2V2h10V12z"></path>
            </g>
        </g>
        <g transform="translate(124,124)" fill="#000000">
            <g transform="scale(15.5)">
                <rect width="6" height="6"></rect>
            </g>
        </g>
        <g transform="translate(806,124)" fill="#000000">
            <g transform="scale(15.5)">
                <rect width="6" height="6"></rect>
            </g>
        </g>
        <g transform="translate(124,806)" fill="#000000">
            <g transform="scale(15.5)">
                <rect width="6" height="6"></rect>
            </g>
        </g>
    </g>
</svg>